<svg width="19" height="19" viewBox="0 0 19 19" fill="none" xmlns="http://www.w3.org/2000/svg">
<path d="M13.8945 4.79903C12.697 3.67773 11.1429 3.06306 9.49418 3.06452C6.52704 3.06712 3.96548 5.10158 3.25823 7.92369C3.20675 8.12913 3.02372 8.27419 2.81192 8.27419H0.616849C0.329627 8.27419 0.111433 8.01344 0.164565 7.73116C0.993401 3.32975 4.85776 0 9.5 0C12.0454 0 14.3569 1.00118 16.0625 2.63108L17.4306 1.26296C18.0097 0.683809 19 1.09399 19 1.91306V7.04839C19 7.55614 18.5884 7.96774 18.0806 7.96774H12.9453C12.1263 7.96774 11.7161 6.97748 12.2952 6.39829L13.8945 4.79903ZM0.919355 11.0323H6.05468C6.87375 11.0323 7.28393 12.0225 6.70478 12.6017L5.10548 14.201C6.30302 15.3224 7.85723 15.937 9.50598 15.9355C12.4716 15.9328 15.0342 13.8998 15.7418 11.0764C15.7933 10.8709 15.9763 10.7259 16.1881 10.7259H18.3832C18.6704 10.7259 18.8886 10.9866 18.8355 11.2689C18.0066 15.6703 14.1422 19 9.5 19C6.95461 19 4.64309 17.9988 2.93753 16.3689L1.56942 17.737C0.99026 18.3162 0 17.906 0 17.0869V11.9516C0 11.4439 0.411603 11.0323 0.919355 11.0323Z" fill="#F04D4D"/>
</svg>
