<svg width="23" height="18" viewBox="0 0 23 18" fill="none" xmlns="http://www.w3.org/2000/svg">
<path d="M8.05 9C8.95979 9 9.84916 8.73608 10.6056 8.24161C11.3621 7.74715 11.9517 7.04434 12.2998 6.22208C12.648 5.39981 12.7391 4.49501 12.5616 3.6221C12.3841 2.74918 11.946 1.94736 11.3027 1.31802C10.6594 0.688685 9.83973 0.260102 8.94742 0.0864683C8.0551 -0.0871652 7.1302 0.00194976 6.28966 0.342544C5.44912 0.683138 4.73069 1.25991 4.22524 1.99994C3.71979 2.73996 3.45 3.60999 3.45 4.5C3.45 5.69348 3.93464 6.83807 4.79731 7.68198C5.65998 8.5259 6.83 9 8.05 9ZM11.5 11.25C11.5026 10.8742 11.6028 10.5053 11.7911 10.1777C11.6186 10.1602 11.4497 10.125 11.27 10.125H10.6698C9.8484 10.4956 8.95458 10.6875 8.05 10.6875C7.14542 10.6875 6.2516 10.4956 5.43016 10.125H4.83C3.54909 10.1253 2.32073 10.6232 1.41499 11.5092C0.509251 12.3953 0.000285821 13.5969 0 14.85L0 16.3125C0 16.7601 0.181741 17.1893 0.505241 17.5057C0.828741 17.8222 1.2675 18 1.725 18H11.8198C11.6132 17.6594 11.5028 17.2711 11.5 16.875V11.25ZM21.85 10.125H20.7V7.3125C20.7 6.56658 20.3971 5.85121 19.8579 5.32376C19.3188 4.79632 18.5875 4.5 17.825 4.5C17.0625 4.5 16.3312 4.79632 15.7921 5.32376C15.2529 5.85121 14.95 6.56658 14.95 7.3125V10.125H13.8C13.495 10.125 13.2025 10.2435 12.9868 10.4545C12.7712 10.6655 12.65 10.9516 12.65 11.25V16.875C12.65 17.1734 12.7712 17.4595 12.9868 17.6705C13.2025 17.8815 13.495 18 13.8 18H21.85C22.155 18 22.4475 17.8815 22.6632 17.6705C22.8788 17.4595 23 17.1734 23 16.875V11.25C23 10.9516 22.8788 10.6655 22.6632 10.4545C22.4475 10.2435 22.155 10.125 21.85 10.125ZM17.825 15.1875C17.5976 15.1875 17.3752 15.1215 17.1861 14.9979C16.997 14.8743 16.8496 14.6986 16.7625 14.493C16.6755 14.2875 16.6527 14.0613 16.6971 13.843C16.7415 13.6248 16.851 13.4243 17.0118 13.267C17.1727 13.1097 17.3776 13.0025 17.6006 12.9591C17.8237 12.9157 18.055 12.938 18.2651 13.0231C18.4752 13.1083 18.6548 13.2525 18.7812 13.4375C18.9076 13.6225 18.975 13.84 18.975 14.0625C18.975 14.3609 18.8538 14.647 18.6382 14.858C18.4225 15.069 18.13 15.1875 17.825 15.1875ZM18.975 10.125H16.675V7.3125C16.675 7.01413 16.7962 6.72799 17.0118 6.51701C17.2275 6.30603 17.52 6.1875 17.825 6.1875C18.13 6.1875 18.4225 6.30603 18.6382 6.51701C18.8538 6.72799 18.975 7.01413 18.975 7.3125V10.125Z" fill="#DA4256"/>
</svg>
