<svg width="23" height="18" viewBox="0 0 23 18" fill="none" xmlns="http://www.w3.org/2000/svg">
<path d="M8.05031 8.99979C10.5912 8.99979 12.6505 6.98538 12.6505 4.49989C12.6505 2.01441 10.5912 0 8.05031 0C5.50943 0 3.45013 2.01441 3.45013 4.49989C3.45013 6.98538 5.50943 8.99979 8.05031 8.99979ZM11.2704 10.1248H10.6703C9.87242 10.4833 8.98473 10.6872 8.05031 10.6872C7.1159 10.6872 6.23181 10.4833 5.43037 10.1248H4.83019C2.16352 10.1248 0 12.2411 0 14.8496V16.3121C0 17.2437 0.772686 17.9996 1.72507 17.9996H11.6047C11.5184 17.7605 11.4825 17.5074 11.5112 17.2508L11.7556 15.1098L11.7987 14.7196L12.0827 14.4418L14.8607 11.7243C13.9802 10.7505 12.7044 10.1248 11.2704 10.1248ZM12.8985 15.2328L12.6541 17.3773C12.6146 17.7359 12.9236 18.0382 13.2866 17.9961L15.4753 17.757L20.4313 12.9091L17.8544 10.3884L12.8985 15.2328ZM22.7493 9.45329L21.3872 8.1209C21.053 7.79396 20.5067 7.79396 20.1725 8.1209L18.814 9.44978L18.6667 9.59391L21.2471 12.1146L22.7493 10.6451C23.0836 10.3146 23.0836 9.78375 22.7493 9.45329Z" fill="#DA4256"/>
</svg>
