<svg xmlns="http://www.w3.org/2000/svg"  viewBox="0 0 256 256" width="64px" height="64px"><path fill="#D7E057" d="M47.161,25.802c0,0,3.408,12.659,13.222,13.246c0,0-13.1,4.525-13.321,14.202 c0,0-2.578-13.572-12.925-14.059C34.137,39.192,46.187,37.366,47.161,25.802z"/><path fill="#3A312A" d="M47.061,54.75c-0.713,0-1.335-0.506-1.472-1.217c-0.024-0.125-2.495-12.418-11.523-12.844 c-0.77-0.036-1.387-0.65-1.427-1.421c-0.04-0.77,0.511-1.444,1.273-1.561c0.441-0.068,10.894-1.816,11.754-12.032 c0.061-0.726,0.634-1.301,1.359-1.367c0.732-0.065,1.393,0.399,1.583,1.102c0.032,0.116,3.259,11.626,11.864,12.142 c0.714,0.043,1.297,0.584,1.396,1.292c0.098,0.708-0.319,1.388-0.994,1.622c-0.121,0.042-12.118,4.311-12.313,12.819 c-0.018,0.767-0.61,1.396-1.375,1.46C47.145,54.748,47.103,54.75,47.061,54.75z M39.32,39.021c3.878,1.969,6.23,5.746,7.587,8.876 c2.026-4.021,5.941-6.786,8.949-8.427c-4.134-1.842-6.783-5.651-8.333-8.723C45.729,35.107,42.25,37.615,39.32,39.021z"/><path fill="#D7E057" d="M25.462,42.783c0,0,2.411,8.954,9.352,9.369c0,0-9.266,3.201-9.422,10.045c0,0-1.824-9.6-9.142-9.944 C16.25,52.253,24.774,50.962,25.462,42.783z"/><path fill="#3A312A" d="M25.391,63.697c-0.713,0-1.337-0.508-1.472-1.22c-0.016-0.082-1.704-8.442-7.739-8.727 c-0.77-0.036-1.387-0.65-1.427-1.421c-0.04-0.77,0.511-1.444,1.273-1.561c0.296-0.047,7.364-1.242,7.942-8.113 c0.061-0.726,0.635-1.303,1.36-1.368c0.727-0.063,1.392,0.399,1.582,1.101l0,0c0.021,0.079,2.227,7.92,7.994,8.266 c0.714,0.043,1.299,0.584,1.396,1.293c0.098,0.709-0.32,1.389-0.996,1.622c-0.081,0.028-8.282,2.952-8.413,8.661 c-0.018,0.768-0.611,1.397-1.376,1.461C25.474,63.695,25.432,63.697,25.391,63.697z M20.872,52.17 c2.107,1.332,3.523,3.394,4.447,5.279c1.376-2.232,3.515-3.871,5.365-4.972c-2.287-1.27-3.884-3.351-4.941-5.225 C24.569,49.54,22.728,51.129,20.872,52.17z"/><path fill="#D7E057" d="M25.462,16.125c0,0,2.411,8.954,9.352,9.37c0,0-9.266,3.201-9.422,10.045c0,0-1.824-9.6-9.142-9.944 C16.25,25.596,24.774,24.304,25.462,16.125z"/><path fill="#3A312A" d="M25.391,37.04c-0.713,0-1.337-0.508-1.472-1.22c-0.016-0.082-1.704-8.442-7.739-8.727 c-0.77-0.036-1.387-0.65-1.427-1.421c-0.04-0.77,0.511-1.444,1.273-1.561c0.296-0.047,7.364-1.242,7.942-8.113 c0.061-0.726,0.635-1.303,1.36-1.368c0.727-0.071,1.392,0.399,1.582,1.101l0,0c0.021,0.079,2.227,7.92,7.994,8.265 c0.715,0.042,1.299,0.584,1.396,1.293c0.098,0.709-0.319,1.388-0.996,1.622c-0.081,0.028-8.282,2.953-8.413,8.662 c-0.018,0.768-0.611,1.397-1.376,1.461C25.474,37.038,25.432,37.04,25.391,37.04z M20.872,25.513 c2.107,1.332,3.523,3.394,4.447,5.279c1.376-2.232,3.515-3.872,5.365-4.973c-2.287-1.268-3.884-3.35-4.941-5.224 C24.569,22.883,22.728,24.472,20.872,25.513z"/><path fill="#EF6D7A" d="M132.25,24.875c-59.275,0-107.5,48.225-107.5,107.5s48.225,107.5,107.5,107.5s107.5-48.225,107.5-107.5 S191.525,24.875,132.25,24.875z M63.423,187.627c-12.177-15.138-19.477-34.357-19.477-55.252c0-48.691,39.613-88.304,88.304-88.304 c20.895,0,40.114,7.3,55.252,19.477L63.423,187.627z M132.25,220.679c-20.895,0-40.114-7.3-55.252-19.477L201.077,77.123 c12.177,15.138,19.477,34.357,19.477,55.252C220.554,181.066,180.94,220.679,132.25,220.679z"/><path fill="#3A312A" d="M132.25,241.375c-60.103,0-109-48.898-109-109s48.897-109,109-109s109,48.897,109,109 S192.353,241.375,132.25,241.375z M132.25,26.375c-58.449,0-106,47.552-106,106s47.551,106,106,106s106-47.552,106-106 S190.699,26.375,132.25,26.375z M132.25,222.179c-20.356,0-40.313-7.034-56.192-19.808c-0.332-0.268-0.535-0.663-0.558-1.088 c-0.023-0.426,0.136-0.841,0.438-1.142L200.016,76.063c0.301-0.301,0.715-0.45,1.142-0.438c0.425,0.023,0.821,0.226,1.088,0.558 c12.773,15.879,19.808,35.835,19.808,56.192C222.054,181.893,181.768,222.179,132.25,222.179z M79.252,201.069 c15.128,11.69,33.88,18.109,52.998,18.109c47.864,0,86.804-38.94,86.804-86.804c0-19.118-6.419-37.87-18.11-52.998L79.252,201.069z M63.423,189.127c-0.027,0-0.054-0.001-0.081-0.002c-0.425-0.023-0.821-0.226-1.088-0.558 c-12.773-15.879-19.808-35.835-19.808-56.192c0-49.518,40.286-89.804,89.804-89.804c20.356,0,40.313,7.034,56.192,19.808 c0.332,0.268,0.535,0.663,0.558,1.088c0.023,0.426-0.136,0.841-0.438,1.142L64.484,188.688 C64.202,188.97,63.82,189.127,63.423,189.127z M132.25,45.571c-47.864,0-86.804,38.94-86.804,86.804 c0,19.118,6.419,37.87,18.11,52.998L185.248,63.681C170.12,51.99,151.368,45.571,132.25,45.571z"/><path fill="#D34E5C" d="M132.25,26.38c-2.54,0-5.07,0.09-7.57,0.26c54.99,3.82,98.57,49.79,98.57,105.74 c0,55.92-43.54,101.88-98.5,105.73c2.48,0.18,4.98,0.27,7.5,0.27c58.45,0,106-47.56,106-106C238.25,73.93,190.7,26.38,132.25,26.38 z"/><path fill="#FCE8CB" d="M80.996,134.625H67.91l3.026,49.165c0.209,3.391,3.019,6.033,6.416,6.033h26.975 c3.397,0,6.207-2.643,6.416-6.033l3.026-49.165H93.682H80.996z"/><path fill="#3A312A" d="M104.327,191.324H77.352c-4.181,0-7.657-3.269-7.913-7.441l-3.025-49.166 c-0.025-0.413,0.121-0.818,0.404-1.119c0.284-0.302,0.679-0.473,1.093-0.473h13.086c0.829,0,1.5,0.672,1.5,1.5s-0.671,1.5-1.5,1.5 h-11.49l2.927,47.574c0.16,2.594,2.32,4.625,4.919,4.625h26.975c2.599,0,4.759-2.031,4.919-4.625l2.927-47.574H93.682 c-0.829,0-1.5-0.672-1.5-1.5s0.671-1.5,1.5-1.5h20.086c0.414,0,0.809,0.171,1.093,0.473c0.284,0.301,0.43,0.706,0.404,1.119 l-3.025,49.166C111.983,188.056,108.507,191.324,104.327,191.324z"/><path fill="#8AC6DD" d="M68.854,149.953l2.082,33.838c0.209,3.39,3.019,6.033,6.416,6.033h26.975c3.397,0,6.207-2.643,6.416-6.033 l2.082-33.838H68.854z"/><path fill="#3A312A" d="M104.327,191.324H77.352c-4.181,0-7.657-3.269-7.913-7.441l-2.082-33.838 c-0.025-0.413,0.121-0.818,0.404-1.119c0.284-0.302,0.679-0.473,1.093-0.473h43.971c0.414,0,0.809,0.171,1.093,0.473 c0.284,0.301,0.43,0.706,0.404,1.119l-2.082,33.838C111.983,188.056,108.507,191.324,104.327,191.324z M70.449,151.453 l1.984,32.246c0.16,2.594,2.32,4.625,4.919,4.625h26.975c2.599,0,4.759-2.031,4.919-4.625l1.984-32.246H70.449z"/><path fill="#FCE8CB" d="M128.216,117.901v66.384c0,3.059,2.48,5.539,5.539,5.539c3.059,0,5.538-2.48,5.538-5.539v-66.384H128.216z"/><path fill="#3A312A" d="M133.754,191.324c-3.881,0-7.039-3.157-7.039-7.039v-66.384c0-0.828,0.671-1.5,1.5-1.5h11.077 c0.829,0,1.5,0.672,1.5,1.5v66.384C140.792,188.167,137.635,191.324,133.754,191.324z M129.715,119.401v64.884 c0,2.227,1.812,4.039,4.039,4.039c2.227,0,4.038-1.812,4.038-4.039v-64.884H129.715z"/><path fill="#FCE8CB" d="M152.195,101.604c0,14.735-8.259,26.678-18.441,26.678c-10.182,0-18.441-11.943-18.441-26.678 c0-9.405,1.027-15.495,2.802-19.438c1.297-2.879,5.588-1.982,5.588,1.175v16.442c0,1.611,1.306,2.916,2.916,2.916l0,0 c1.611,0,2.916-1.306,2.916-2.916V79.143c0-2.329,1.888-4.217,4.217-4.217l0,0l0,0c2.329,0,4.217,1.888,4.217,4.217v20.641 c0,1.611,1.306,2.916,2.916,2.916l0,0c1.611,0,2.916-1.306,2.916-2.916V83.342c0-3.158,4.292-4.055,5.588-1.175 C151.168,86.109,152.195,92.199,152.195,101.604z"/><path fill="#3A312A" d="M133.754,129.782c-10.996,0-19.941-12.641-19.941-28.178c0-9.109,0.96-15.669,2.935-20.054 c0.882-1.96,2.885-2.973,4.977-2.523c2.081,0.446,3.479,2.181,3.479,4.314v16.442c0,0.781,0.635,1.416,1.417,1.416 c0.781,0,1.416-0.635,1.416-1.416V79.144c0-3.152,2.565-5.718,5.717-5.718c3.153,0,5.718,2.565,5.718,5.718v20.641 c0,0.781,0.635,1.416,1.416,1.416c0.781,0,1.417-0.635,1.417-1.416V83.342c0-2.134,1.398-3.868,3.479-4.314 c2.095-0.449,4.095,0.564,4.978,2.523c1.975,4.384,2.934,10.943,2.934,20.054C153.695,117.142,144.749,129.782,133.754,129.782z M120.766,81.925c-0.478,0-0.997,0.223-1.283,0.858c-1.797,3.989-2.67,10.146-2.67,18.821c0,13.883,7.6,25.178,16.941,25.178 c9.341,0,16.941-11.295,16.941-25.178c0-8.677-0.873-14.833-2.67-18.821c-0.354-0.787-1.064-0.942-1.612-0.823 c-0.26,0.056-1.108,0.32-1.108,1.382v16.442c0,2.435-1.981,4.416-4.417,4.416c-2.435,0-4.416-1.981-4.416-4.416V79.144 c0-1.499-1.219-2.718-2.718-2.718c-1.499,0-2.717,1.219-2.717,2.718v20.641c0,2.435-1.981,4.416-4.416,4.416 c-2.435,0-4.417-1.981-4.417-4.416V83.342c0-1.062-0.849-1.326-1.108-1.382C120.991,81.938,120.879,81.925,120.766,81.925z"/><path fill="#FCE8CB" d="M172.611,156.904v27.381c0,3.059,2.48,5.539,5.538,5.539c3.059,0,5.539-2.48,5.539-5.539v-66.384h-11.077 v25.858V156.904z"/><path fill="#3A312A" d="M178.15,191.324c-3.881,0-7.039-3.157-7.039-7.039v-27.381c0-0.828,0.671-1.5,1.5-1.5s1.5,0.672,1.5,1.5 v27.381c0,2.227,1.812,4.039,4.039,4.039c2.227,0,4.039-1.812,4.039-4.039v-64.884h-8.077v24.357c0,0.828-0.671,1.5-1.5,1.5 s-1.5-0.672-1.5-1.5v-25.857c0-0.828,0.671-1.5,1.5-1.5h11.077c0.829,0,1.5,0.672,1.5,1.5v66.384 C185.189,188.167,182.031,191.324,178.15,191.324z"/><ellipse cx="178.15" cy="101.604" fill="#FCE8CB" rx="18.439" ry="26.678"/><path fill="#3A312A" d="M178.15,129.782c-10.995,0-19.939-12.641-19.939-28.178c0-15.538,8.945-28.179,19.939-28.179 s19.939,12.641,19.939,28.179C198.089,117.142,189.145,129.782,178.15,129.782z M178.15,76.426 c-9.34,0-16.939,11.295-16.939,25.179c0,13.883,7.599,25.178,16.939,25.178s16.939-11.295,16.939-25.178 C195.089,87.721,187.49,76.426,178.15,76.426z"/></svg>