<svg xmlns="http://www.w3.org/2000/svg"  viewBox="0 0 356 356" width="64px" height="64px" clip-rule="evenodd"><path fill="#cc747b" d="M155.139,64.835c14.432,-5.003 29.927,-7.722 46.053,-7.722c77.661,0 140.711,63.051 140.711,140.711c0,77.661 -63.05,140.711 -140.711,140.711c-77.661,0 -140.711,-63.05 -140.711,-140.711c-0,-13.012 1.77,-25.614 5.082,-37.578l89.576,-95.411Z"/><path fill="#bc4851" d="M155.139,64.835c14.432,-5.003 29.927,-7.722 46.053,-7.722c77.661,0 140.711,63.051 140.711,140.711c0,77.661 -63.05,140.711 -140.711,140.711c-77.661,0 -140.711,-63.05 -140.711,-140.711c-0,-13.012 1.77,-25.614 5.082,-37.578l89.576,-95.411Z"/><path fill="#cc747b" d="M84.169,275.943c-14.963,-22.361 -23.688,-49.229 -23.688,-78.119c-0,-13.012 1.77,-25.614 5.082,-37.578l89.576,-95.411c14.432,-5.003 29.927,-7.722 46.053,-7.722c19.935,0 38.908,4.155 56.106,11.649c14.963,22.361 23.688,49.229 23.688,78.118c-0,77.661 -63.051,140.711 -140.711,140.711c-19.936,0 -38.908,-4.154 -56.106,-11.648Z"/><path fill="#bc4851" d="M154.499,65.516c7.61,11.373 12.051,25.047 12.051,39.75c0,12.969 -3.455,25.137 -9.494,35.634c-3.778,6.567 23.407,28.333 18.741,29.784c-24.282,7.549 -43.824,-3.729 -50.131,-0.725c-9.313,4.436 -19.733,6.92 -30.729,6.92c-11.344,-0 -22.075,-2.643 -31.606,-7.345c0.641,-3.135 1.386,-6.232 2.232,-9.288l88.936,-94.73Z"/><path fill="#eebcb1" d="M85.266,17.02c-39.525,0 -71.613,32.089 -71.613,71.613c-0,39.525 32.088,71.613 71.613,71.613c10.995,0 21.415,-2.483 30.729,-6.919c6.307,-3.004 25.849,8.274 50.131,0.725c4.666,-1.451 -22.519,-23.217 -18.741,-29.785c6.039,-10.496 9.494,-22.665 9.494,-35.634c-0,-39.524 -32.089,-71.613 -71.613,-71.613Z"/><path fill="#f6ddce" d="M30.303,134.523c-10.393,-12.432 -16.65,-28.436 -16.65,-45.89c-0,-39.524 32.088,-71.613 71.613,-71.613c15.9,0 30.597,5.194 42.487,13.976c2.527,7.841 3.894,16.206 3.894,24.888c-0,44.799 -36.371,81.17 -81.17,81.17c-6.962,0 -13.72,-0.878 -20.174,-2.531Z"/><path fill="#86b537" d="M59.277,106.89c-0,0 -10.048,-5.421 -10.15,-20.284c-0.181,-26.299 26.999,-33.677 35.369,-46.172c0.197,-0.338 0.558,-0.545 0.948,-0.545c0.391,0.001 0.751,0.208 0.947,0.546c8.373,12.494 35.553,19.872 35.373,46.171c-0.102,14.863 -10.151,20.284 -10.151,20.284l-52.336,0Z"/><path fill="#9ac850" d="M49.231,88.984c-0.063,-0.765 -0.099,-1.557 -0.104,-2.378c-0.181,-26.299 26.999,-33.677 35.369,-46.172c0.197,-0.338 0.558,-0.545 0.948,-0.545c0.391,0.001 0.751,0.208 0.947,0.546c4.246,6.336 13.328,11.356 21.227,18.196c-3.719,19.367 -20.77,34.02 -41.217,34.02c-6.115,-0 -11.927,-1.311 -17.17,-3.667Z"/><path fill="#4b9da7" d="M57.121,105.193l0,49.302c8.644,3.702 18.157,5.751 28.145,5.751c10.128,0 19.767,-2.107 28.503,-5.906l0,-49.147c-6.428,-1.585 -16.346,-3.378 -28.324,-3.378c-11.978,-0 -21.896,1.793 -28.324,3.378Z"/><path fill="#3d8088" d="M101.976,102.949l0,55.334c4.077,-0.976 8.019,-2.301 11.793,-3.943l0,-49.147c-3.149,-0.777 -7.136,-1.603 -11.793,-2.244Z"/><path fill="#f6ddce" d="M197.025,298.009l0,19.631c0,2.3 1.867,4.167 4.167,4.167c2.3,-0 4.167,-1.867 4.167,-4.167l-0,-19.631c-0,-2.3 -1.867,-4.167 -4.167,-4.167c-2.3,0 -4.167,1.867 -4.167,4.167Zm-55.089,-5.883l-4.26,7.378c-1.15,1.992 -0.467,4.542 1.525,5.692c1.991,1.15 4.542,0.467 5.692,-1.525l4.26,-7.379c1.149,-1.991 0.466,-4.542 -1.525,-5.691c-1.992,-1.15 -4.542,-0.467 -5.692,1.525Zm122.772,7.378l-4.26,-7.378c-1.15,-1.992 -3.7,-2.675 -5.692,-1.525c-1.991,1.149 -2.675,3.7 -1.525,5.691l4.26,7.379c1.15,1.992 3.701,2.675 5.692,1.525c1.992,-1.15 2.675,-3.7 1.525,-5.692Zm-161.984,-49.64l-7.379,4.26c-1.991,1.15 -2.675,3.7 -1.525,5.691c1.15,1.992 3.7,2.675 5.692,1.526l7.379,-4.26c1.991,-1.15 2.675,-3.701 1.525,-5.692c-1.15,-1.992 -3.701,-2.675 -5.692,-1.525Zm204.315,4.26l-7.379,-4.26c-1.992,-1.15 -4.542,-0.467 -5.692,1.525c-1.15,1.991 -0.466,4.542 1.525,5.692l7.379,4.26c1.992,1.149 4.542,0.466 5.692,-1.526c1.15,-1.991 0.466,-4.541 -1.525,-5.691Zm-92.185,-51.366l31.063,0.219c2.3,0.016 4.18,-1.838 4.196,-4.137c0.017,-2.3 -1.837,-4.18 -4.137,-4.196l-31.063,-0.219c-2.3,-0.016 -4.18,1.838 -4.196,4.137c-0.016,2.3 1.837,4.18 4.137,4.196Zm-133.478,-0.767l19.632,0c2.299,0 4.166,-1.867 4.166,-4.167c0,-2.299 -1.867,-4.166 -4.166,-4.166l-19.632,-0c-2.299,-0 -4.166,1.867 -4.166,4.166c-0,2.3 1.867,4.167 4.166,4.167Zm220,0l19.632,0c2.299,0 4.166,-1.867 4.166,-4.167c0,-2.299 -1.867,-4.166 -4.166,-4.166l-19.632,-0c-2.299,-0 -4.166,1.867 -4.166,4.166c-0,2.3 1.867,4.167 4.166,4.167Zm-96.017,-16.764l-0,-65.241c-0,-2.299 -1.867,-4.166 -4.167,-4.166c-2.3,-0 -4.167,1.867 -4.167,4.166l0,65.241c0,2.299 1.867,4.166 4.167,4.166c2.3,0 4.167,-1.867 4.167,-4.166Zm97.513,-50.919l-7.379,4.26c-1.991,1.15 -2.675,3.7 -1.525,5.692c1.15,1.991 3.7,2.675 5.692,1.525l7.379,-4.26c1.991,-1.15 2.675,-3.7 1.525,-5.692c-1.15,-1.991 -3.7,-2.675 -5.692,-1.525Zm-45.381,-42.33l-4.26,7.378c-1.15,1.992 -0.466,4.542 1.525,5.692c1.992,1.15 4.542,0.467 5.692,-1.525l4.26,-7.379c1.15,-1.991 0.467,-4.542 -1.525,-5.691c-1.991,-1.15 -4.542,-0.467 -5.692,1.525Zm-60.466,-13.969l0,19.631c0,2.3 1.867,4.167 4.167,4.167c2.3,-0 4.167,-1.867 4.167,-4.167l-0,-19.631c-0,-2.3 -1.867,-4.167 -4.167,-4.167c-2.3,0 -4.167,1.867 -4.167,4.167Z"/><circle cx="201.192" cy="197.824" r="14.731" fill="#9ac850"/><path fill="#3d8088" d="M50.633,111.46c-0,-0 14.236,-5.479 34.812,-5.479c20.576,0 34.813,5.479 34.813,5.479c2.144,0.831 4.559,-0.234 5.391,-2.378c0.832,-2.144 -0.234,-4.56 -2.378,-5.392c0,0 -15.461,-6.042 -37.826,-6.042c-22.365,0 -37.826,6.042 -37.826,6.042c-2.144,0.832 -3.21,3.248 -2.378,5.392c0.832,2.144 3.248,3.209 5.392,2.378Z"/></svg>