<svg width="14" height="20" viewBox="0 0 14 20" fill="none" xmlns="http://www.w3.org/2000/svg">
<path d="M8.16216 0.862904C7.84636 -0.261314 6.1958 -0.313658 5.83784 0.862904C3.97767 7.0254 0 8.70001 0 13.0434C0 16.8887 3.13091 20 7 20C10.8691 20 14 16.8887 14 13.0434C14 8.67813 10.0311 7.05352 8.16216 0.862904ZM7 17.5C4.54403 17.5 2.54545 15.5371 2.54545 13.125C2.54545 12.7797 2.83023 12.5 3.18182 12.5C3.53341 12.5 3.81818 12.7797 3.81818 13.125C3.81818 14.8481 5.24563 16.25 7 16.25C7.35159 16.25 7.63636 16.5297 7.63636 16.875C7.63636 17.2203 7.35159 17.5 7 17.5Z" fill="#F04D4D"/>
</svg>
